<?xml version="1.0" encoding="iso-8859-1"?>
<!-- Generator: Adobe Illustrator 19.0.0, SVG Export Plug-In . SVG Version: 6.00 Build 0)  -->
<svg version="1.1" id="Capa_1" xmlns="http://www.w3.org/2000/svg" xmlns:xlink="http://www.w3.org/1999/xlink" x="0px" y="0px"
	 viewBox="0 0 512 512" style="enable-background:new 0 0 512 512;" xml:space="preserve">
<circle style="fill:#949492;" cx="256" cy="256" r="247.467"/>
<circle style="fill:#AFAFA5;" cx="213.333" cy="204.8" r="153.6"/>
<circle style="fill:#CECECA;" cx="213.333" cy="204.8" r="93.867"/>
<g>
	<path style="fill:#4D007E;" d="M256,512C114.842,512,0,397.158,0,256S114.842,0,256,0s256,114.842,256,256S397.158,512,256,512z
		 M256,17.067C124.254,17.067,17.067,124.254,17.067,256S124.254,494.933,256,494.933S494.933,387.746,494.933,256
		S387.746,17.067,256,17.067z"/>
	<path style="fill:#4D007E;" d="M247.467,170.667c-23.526,0-42.667-19.14-42.667-42.667s19.14-42.667,42.667-42.667
		s42.667,19.14,42.667,42.667S270.993,170.667,247.467,170.667z M247.467,102.4c-14.114,0-25.6,11.486-25.6,25.6
		s11.486,25.6,25.6,25.6c14.114,0,25.6-11.486,25.6-25.6C273.067,113.886,261.581,102.4,247.467,102.4z"/>
	<path style="fill:#4D007E;" d="M102.4,290.133c-19.14,0-34.133-20.617-34.133-46.933s14.993-46.933,34.133-46.933
		s34.133,20.617,34.133,46.933S121.54,290.133,102.4,290.133z M102.4,213.333c-8.073,0-17.067,12.271-17.067,29.867
		s8.994,29.867,17.067,29.867s17.067-12.271,17.067-29.867S110.473,213.333,102.4,213.333z"/>
	<path style="fill:#4D007E;" d="M139.682,420.796c-10.274,0-21.82-5.001-31.326-14.507c-7.159-7.159-12.066-15.889-13.798-24.576
		c-1.954-9.796,0.35-18.842,6.332-24.832c5.982-5.973,15.044-8.294,24.823-6.332c8.687,1.741,17.417,6.639,24.576,13.798
		c15.94,15.94,19.217,37.641,7.467,49.399C153.011,418.5,146.645,420.796,139.682,420.796z M118.955,366.942
		c-2.057,0-4.403,0.427-5.99,2.014c-2.671,2.662-2.057,7.467-1.673,9.412c1.067,5.333,4.403,11.119,9.131,15.855
		c9.37,9.37,21.077,11.674,25.267,7.467c4.198-4.198,1.903-15.898-7.467-25.259c-4.736-4.736-10.513-8.064-15.855-9.131
		C121.591,367.138,120.337,366.942,118.955,366.942z"/>
	<path style="fill:#4D007E;" d="M375.467,290.133c-23.526,0-42.667-19.14-42.667-42.667c0-4.71,3.823-8.533,8.533-8.533
		s8.533,3.823,8.533,8.533c0,14.114,11.486,25.6,25.6,25.6c14.114,0,25.6-11.486,25.6-25.6c0-14.114-11.486-25.6-25.6-25.6
		c-4.71,0-8.533-3.823-8.533-8.533s3.823-8.533,8.533-8.533c23.526,0,42.667,19.14,42.667,42.667S398.993,290.133,375.467,290.133z"
		/>
	<path style="fill:#4D007E;" d="M281.6,460.8c-37.641,0-68.267-30.626-68.267-68.267s30.626-68.267,68.267-68.267
		c4.71,0,8.533,3.823,8.533,8.533s-3.823,8.533-8.533,8.533c-28.237,0-51.2,22.963-51.2,51.2s22.963,51.2,51.2,51.2
		s51.2-22.963,51.2-51.2c0-4.71,3.823-8.533,8.533-8.533s8.533,3.823,8.533,8.533C349.867,430.174,319.241,460.8,281.6,460.8z"/>
	<path style="fill:#4D007E;" d="M401.067,384c-4.71,0-8.533-3.823-8.533-8.533c0-4.71,3.823-8.533,8.533-8.533
		c14.114,0,25.6-11.486,25.6-25.6c0-4.71,3.823-8.533,8.533-8.533s8.533,3.823,8.533,8.533C443.733,364.86,424.593,384,401.067,384z
		"/>
	<path style="fill:#4D007E;" d="M93.867,153.6c-4.71,0-8.533-3.823-8.533-8.533c0-18.825,15.309-34.133,34.133-34.133
		c4.71,0,8.533,3.823,8.533,8.533c0,4.71-3.823,8.533-8.533,8.533c-9.412,0-17.067,7.654-17.067,17.067
		C102.4,149.777,98.577,153.6,93.867,153.6z"/>
	<path style="fill:#4D007E;" d="M247.467,298.667c-4.71,0-8.533-3.823-8.533-8.533c0-18.825,15.309-34.133,34.133-34.133
		c4.71,0,8.533,3.823,8.533,8.533c0,4.71-3.823,8.533-8.533,8.533c-9.412,0-17.067,7.654-17.067,17.067
		C256,294.844,252.177,298.667,247.467,298.667z"/>
	<path style="fill:#4D007E;" d="M213.333,238.933c-4.71,0-8.533-3.823-8.533-8.533c0-9.412-7.654-17.067-17.067-17.067
		c-4.71,0-8.533-3.823-8.533-8.533c0-4.71,3.823-8.533,8.533-8.533c18.825,0,34.133,15.309,34.133,34.133
		C221.867,235.11,218.044,238.933,213.333,238.933z"/>
	<path style="fill:#4D007E;" d="M392.533,136.533c-4.71,0-8.533-3.823-8.533-8.533c0-18.825-15.309-34.133-34.133-34.133
		c-4.71,0-8.533-3.823-8.533-8.533c0-4.71,3.823-8.533,8.533-8.533c28.237,0,51.2,22.963,51.2,51.2
		C401.067,132.71,397.244,136.533,392.533,136.533z"/>
</g>
<g>
</g>
<g>
</g>
<g>
</g>
<g>
</g>
<g>
</g>
<g>
</g>
<g>
</g>
<g>
</g>
<g>
</g>
<g>
</g>
<g>
</g>
<g>
</g>
<g>
</g>
<g>
</g>
<g>
</g>
</svg>
