<?xml version="1.0" encoding="iso-8859-1"?>
<!-- Generator: Adobe Illustrator 19.0.0, SVG Export Plug-In . SVG Version: 6.00 Build 0)  -->
<svg version="1.1" id="Capa_1" xmlns="http://www.w3.org/2000/svg" xmlns:xlink="http://www.w3.org/1999/xlink" x="0px" y="0px"
	 viewBox="0 0 512 512" style="enable-background:new 0 0 512 512;" xml:space="preserve">
<circle style="fill:#CB0E00;" cx="256" cy="256" r="247.467"/>
<g>
	<path style="fill:#DC5800;" d="M29.687,155.895C16.128,186.513,8.533,220.356,8.533,256c0,1.954,0.102,3.883,0.145,5.828
		C320.367,239.172,127.565,180.292,29.687,155.895z"/>
	<path style="fill:#DC5800;" d="M76.791,85.444c-12.305,12.919-23.27,27.127-32.563,42.47
		c15.343-0.751,140.843-5.248,228.838,42.752c0,0,34.133,25.6,221.867,25.6h1.229c-3.627-14.626-8.576-28.723-14.677-42.189
		c-175.863-1.195-208.418-25.549-208.418-25.549C208.341,93.227,123.341,86.332,76.791,85.444z"/>
	<path style="fill:#DC5800;" d="M128,418.133H69.137c45.363,52.25,112.23,85.333,186.863,85.333c32.828,0,64.137-6.451,92.8-18.057
		C288.256,426.59,128,418.133,128,418.133z"/>
	<path style="fill:#DC5800;" d="M503.253,264.533h-110.72c-46.549,0.887-130.313,7.782-195.038,43.085
		c0,0-28.587,21.367-176.794,25.054c4.719,14.49,10.692,28.416,17.886,41.6c132.702-4.873,158.916-24.516,158.916-24.516
		c87.996-48,212.096-42.556,229.163-42.556h71.467C501.043,293.367,502.758,279.108,503.253,264.533z"/>
	<path style="fill:#DC5800;" d="M416.094,444.638c24.533-20.838,44.919-46.362,59.827-75.204
		C383.821,362.692,259.319,364.271,416.094,444.638z"/>
</g>
<g>
	<path style="fill:#4D007E;" d="M8.678,270.362c-2.116,0-4.164-0.785-5.743-2.219c-1.732-1.579-2.739-3.789-2.79-6.127l-0.06-2.082
		C0.043,258.628,0,257.314,0,256c0-35.934,7.364-70.775,21.888-103.561c1.681-3.789,5.845-5.837,9.865-4.821
		c158.711,39.543,156.51,65.135,155.674,74.769c-1.502,17.417-23.834,36.736-178.133,47.949
		C9.088,270.353,8.883,270.362,8.678,270.362z M34.679,165.956c-11.273,27.614-17.178,56.721-17.596,86.682
		c149.845-11.622,153.259-30.882,153.335-31.71C170.906,215.279,147.217,194.594,34.679,165.956z"/>
	<path style="fill:#4D007E;" d="M496.162,204.8h-1.229c-177.647,0-219.895-22.545-226.347-26.854
		c-86.135-46.763-210.082-42.172-223.94-41.498c-3.14,0.162-6.135-1.442-7.748-4.156c-1.613-2.705-1.604-6.093,0.034-8.789
		c9.472-15.625,20.804-30.404,33.69-43.93c1.647-1.732,3.985-2.662,6.34-2.654c46.157,0.879,133.555,7.774,200.201,44.126
		c0.358,0.196,0.7,0.418,1.024,0.657c0.154,0.094,35.755,22.707,203.366,23.842c3.328,0.017,6.34,1.98,7.714,5.009
		c6.4,14.123,11.503,28.809,15.189,43.657c0.631,2.551,0.051,5.248-1.562,7.313C501.282,203.588,498.79,204.8,496.162,204.8z
		 M64.913,118.946c43.187,0,140.023,4.838,212.241,44.228c0.358,0.196,0.708,0.418,1.033,0.666
		c0.171,0.102,36.207,23.006,206.788,23.868c-2.534-8.508-5.572-16.913-9.079-25.148c-161.673-1.562-201.139-22.639-207.309-26.752
		C206.933,102.332,125.764,95.206,80.41,94.054c-7.296,7.902-14.037,16.23-20.139,24.909
		C61.739,118.955,63.292,118.946,64.913,118.946z"/>
	<path style="fill:#4D007E;" d="M256,512c-74.138,0-144.597-32.179-193.314-88.269c-2.193-2.526-2.705-6.093-1.323-9.139
		c1.391-3.038,4.429-4.992,7.774-4.992H128c0.154,0,0.299,0,0.452,0.009c6.673,0.35,164.173,9.318,226.295,69.675
		c2.065,2.005,2.987,4.932,2.432,7.757c-0.555,2.825-2.5,5.188-5.171,6.272C321.391,505.711,289.092,512,256,512z M88.883,426.667
		c44.518,43.597,104.414,68.267,167.117,68.267c26.086,0,51.644-4.181,76.169-12.459c-62.899-46.959-198.178-55.45-204.408-55.808
		H88.883z"/>
	<path style="fill:#4D007E;" d="M38.579,382.805c-3.115,0-5.99-1.698-7.492-4.446c-7.39-13.551-13.619-28.041-18.509-43.042
		c-0.836-2.56-0.41-5.367,1.152-7.569c1.553-2.202,4.062-3.533,6.758-3.601c140.732-3.499,171.785-23.287,172.083-23.484
		c0.213-0.145,0.614-0.401,0.845-0.529c66.688-36.378,153.284-43.264,198.963-44.126h110.882c2.313,0,4.531,0.939,6.135,2.603
		c1.604,1.664,2.475,3.908,2.398,6.221c-0.503,14.985-2.287,29.833-5.299,44.134c-0.845,3.934-4.326,6.767-8.363,6.767l-76.467-0.06
		c-115.294-1.724-183.074,21.478-219.708,41.361c-5.47,3.627-38.144,21.171-163.063,25.762
		C38.793,382.805,38.69,382.805,38.579,382.805z M32.631,340.864c3.217,8.482,6.886,16.734,10.982,24.67
		c121.114-4.924,148.685-22.562,148.958-22.75c0.222-0.145,0.614-0.401,0.845-0.529c38.332-20.915,109.022-45.491,228.514-43.648
		l4.736,0.06h64.435c1.502-8.388,2.56-16.947,3.166-25.6H392.533c-43.87,0.836-127.113,7.39-190.575,41.839
		C196.378,318.609,162.714,336.657,32.631,340.864z"/>
	<path style="fill:#4D007E;" d="M416.085,453.163c-1.331,0-2.662-0.307-3.891-0.939c-60.322-30.916-83.849-51.985-78.677-70.434
		c4.002-14.285,23.876-29.559,143.019-20.881c2.859,0.213,5.419,1.843,6.827,4.343c1.399,2.5,1.451,5.538,0.137,8.09
		c-15.411,29.833-36.233,56.004-61.884,77.798C420.036,452.471,418.074,453.163,416.085,453.163z M415.667,375.458
		c-61.764,0-65.673,10.803-65.715,10.94c-0.034,0.128-2.637,12.698,64.913,47.991c18.688-16.649,34.492-35.883,47.113-57.353
		C443.742,375.919,428.459,375.458,415.667,375.458z"/>
	<path style="fill:#4D007E;" d="M256,512C114.842,512,0,397.158,0,256S114.842,0,256,0s256,114.842,256,256S397.158,512,256,512z
		 M256,17.067C124.254,17.067,17.067,124.254,17.067,256S124.254,494.933,256,494.933S494.933,387.746,494.933,256
		S387.746,17.067,256,17.067z"/>
</g>
<g>
</g>
<g>
</g>
<g>
</g>
<g>
</g>
<g>
</g>
<g>
</g>
<g>
</g>
<g>
</g>
<g>
</g>
<g>
</g>
<g>
</g>
<g>
</g>
<g>
</g>
<g>
</g>
<g>
</g>
</svg>
