<?xml version="1.0" encoding="iso-8859-1"?>
<!-- Generator: Adobe Illustrator 19.0.0, SVG Export Plug-In . SVG Version: 6.00 Build 0)  -->
<svg version="1.1" id="Capa_1" xmlns="http://www.w3.org/2000/svg" xmlns:xlink="http://www.w3.org/1999/xlink" x="0px" y="0px"
	 viewBox="0 0 512 512" style="enable-background:new 0 0 512 512;" xml:space="preserve">
<circle style="fill:#2747BF;" cx="256" cy="256" r="247.467"/>
<circle style="fill:#2B55D5;" cx="221.867" cy="204.8" r="153.6"/>
<circle style="fill:#406AE8;" cx="221.867" cy="204.8" r="93.867"/>
<g>
	<path style="fill:#4D007E;" d="M256,512C114.842,512,0,397.158,0,256S114.842,0,256,0s256,114.842,256,256S397.158,512,256,512z
		 M256,17.067C124.254,17.067,17.067,124.254,17.067,256S124.254,494.933,256,494.933S494.933,387.746,494.933,256
		S387.746,17.067,256,17.067z"/>
	<path style="fill:#4D007E;" d="M153.609,93.867c-0.512,0-1.024-0.043-1.545-0.137l-3.106-0.563
		c-14.49-2.611-38.741-6.98-59.127-15.684c-4.335-1.852-6.349-6.869-4.497-11.196c1.852-4.335,6.861-6.34,11.196-4.497
		c18.611,7.945,41.677,12.1,55.458,14.583l3.14,0.563c4.634,0.845,7.706,5.291,6.861,9.933
		C161.246,90.982,157.653,93.867,153.609,93.867z"/>
	<path style="fill:#4D007E;" d="M258.748,103.373c-13.73,0-27.162-0.333-39.953-0.64l-14.174-0.333
		c-4.71-0.102-8.448-4.002-8.354-8.713c0.102-4.71,3.994-8.431,8.713-8.354l14.225,0.333c63.36,1.553,135.185,3.319,183.859-31.829
		c3.823-2.765,9.156-1.903,11.913,1.92c2.756,3.823,1.894,9.156-1.92,11.913C370.586,98.338,312.388,103.373,258.748,103.373z"/>
	<path style="fill:#4D007E;" d="M85.333,162.014c-0.777,0-1.562-0.111-2.347-0.333c-10.394-2.97-30.31-9.668-46.908-21.248
		c-3.866-2.697-4.813-8.013-2.116-11.887c2.697-3.857,8.021-4.804,11.878-2.116c14.566,10.155,32.452,16.162,41.822,18.842
		c4.531,1.289,7.159,6.016,5.862,10.547C92.467,159.573,89.054,162.014,85.333,162.014z"/>
	<path style="fill:#4D007E;" d="M232.073,179.174c-34.014,0-65.724-2.918-97.101-8.772c-4.634-0.862-7.689-5.316-6.827-9.95
		c0.862-4.634,5.308-7.714,9.958-6.827c60.723,11.315,123.034,11.298,202.018-0.06c4.685-0.631,8.994,2.569,9.66,7.228
		c0.674,4.668-2.569,8.994-7.228,9.66C302.157,176.265,265.975,179.174,232.073,179.174z"/>
	<path style="fill:#4D007E;" d="M401.067,162.014c-3.695,0-7.091-2.415-8.183-6.135c-1.323-4.523,1.263-9.259,5.786-10.59
		c28.322-8.303,48.546-17.971,60.109-28.749c3.447-3.2,8.849-3.012,12.058,0.427c3.209,3.447,3.021,8.849-0.427,12.066
		c-13.722,12.774-35.618,23.45-66.944,32.631C402.662,161.903,401.86,162.014,401.067,162.014z"/>
	<path style="fill:#4D007E;" d="M59.733,230.042c-0.905,0-1.826-0.145-2.731-0.452c-18.586-6.272-33.178-12.971-44.621-20.489
		c-3.934-2.586-5.035-7.876-2.449-11.819c2.586-3.934,7.876-5.018,11.819-2.449c10.206,6.707,23.526,12.783,40.704,18.577
		c4.463,1.51,6.861,6.349,5.359,10.82C66.62,227.789,63.292,230.042,59.733,230.042z"/>
	<path style="fill:#4D007E;" d="M262.707,255.991c-57.105,0-111.386-9.225-153.438-17.587c-4.625-0.922-7.629-5.41-6.707-10.035
		c0.913-4.625,5.402-7.603,10.035-6.707c45.824,9.114,106.402,19.268,168.678,16.905c4.651-0.222,8.67,3.49,8.849,8.201
		s-3.49,8.678-8.201,8.858C275.49,255.872,269.082,255.991,262.707,255.991z"/>
	<path style="fill:#4D007E;" d="M341.325,255.642c-4.378,0-8.107-3.354-8.491-7.799c-0.401-4.693,3.072-8.832,7.765-9.233
		c20.036-1.732,33.254-5.461,48.555-9.779c7.782-2.193,16.597-4.685,27.051-7.108c4.591-1.058,9.173,1.792,10.24,6.391
		c1.067,4.591-1.792,9.173-6.391,10.24c-10.061,2.33-18.304,4.651-26.266,6.903c-16.137,4.548-30.071,8.482-51.721,10.351
		C341.82,255.633,341.572,255.642,341.325,255.642z"/>
	<path style="fill:#4D007E;" d="M469.333,230.042c-3.465,0-6.733-2.133-8.004-5.581c-1.63-4.42,0.623-9.327,5.043-10.965
		c6.11-2.261,11.042-5.871,16.759-10.044c2.27-1.655,4.582-3.345,7.031-5.001c3.908-2.637,9.207-1.613,11.844,2.295
		c2.637,3.908,1.613,9.207-2.295,11.844c-2.27,1.536-4.412,3.098-6.511,4.634c-6.178,4.514-12.561,9.182-20.907,12.271
		C471.313,229.871,470.315,230.042,469.333,230.042z"/>
	<path style="fill:#4D007E;" d="M51.191,298.547c-1.237,0-2.492-0.265-3.678-0.836c-4.284-2.057-8.03-3.354-11.657-4.608
		c-7.467-2.577-15.181-5.248-24.525-13.713c-3.49-3.166-3.755-8.559-0.589-12.058c3.166-3.499,8.559-3.755,12.058-0.597
		c6.758,6.127,11.742,7.851,18.645,10.24c3.883,1.34,8.286,2.867,13.449,5.333c4.25,2.031,6.042,7.125,4.011,11.375
		C57.429,296.764,54.374,298.547,51.191,298.547z"/>
	<path style="fill:#4D007E;" d="M238.217,341.333c-5.367,0-10.846-0.043-16.469-0.119c-4.71-0.068-8.482-3.934-8.414-8.653
		c0.068-4.719,3.627-8.294,8.653-8.414c50.551,0.725,89.719-1.749,135.168-8.439c4.668-0.691,9.003,2.534,9.685,7.194
		c0.691,4.659-2.534,9.003-7.202,9.685C318.293,338.679,282.069,341.333,238.217,341.333z"/>
	<path style="fill:#4D007E;" d="M435.2,315.622c-3.243,0-6.349-1.869-7.774-5.018c-1.946-4.292-0.043-9.353,4.25-11.298
		c24.166-10.948,47.735-28.774,64.674-48.913c3.029-3.618,8.414-4.079,12.023-1.041c3.61,3.029,4.07,8.414,1.041,12.023
		c-18.526,22.025-44.297,41.523-70.699,53.487C437.581,315.375,436.386,315.622,435.2,315.622z"/>
	<path style="fill:#4D007E;" d="M162.133,332.681c-36.301,0-63.334-17.749-64.469-18.5c-3.917-2.611-4.983-7.91-2.364-11.836
		c2.611-3.908,7.902-4.983,11.819-2.381l0,0c0.239,0.162,24.055,15.642,55.014,15.642c4.71,0,8.533,3.823,8.533,8.533
		C170.667,328.849,166.844,332.681,162.133,332.681z"/>
	<path style="fill:#4D007E;" d="M76.8,401.067c-0.828,0-1.673-0.128-2.509-0.375c-8.499-2.62-17.673-6.272-26.539-9.813
		c-3.234-1.289-6.426-2.569-9.523-3.763c-4.395-1.698-6.579-6.639-4.89-11.034c1.698-4.395,6.639-6.579,11.034-4.881
		c3.149,1.22,6.4,2.509,9.694,3.831c8.55,3.405,17.391,6.938,25.233,9.344c4.506,1.391,7.031,6.161,5.649,10.667
		C83.823,398.711,80.452,401.067,76.8,401.067z"/>
	<path style="fill:#4D007E;" d="M221.875,426.667c-0.162,0-0.316,0-0.478-0.009c-36.087-1.988-69.726-9.31-103.868-17.28
		c-4.591-1.067-7.441-5.658-6.374-10.249c1.075-4.591,5.666-7.458,10.249-6.366c34.654,8.09,66.167,14.942,100.932,16.853
		c4.71,0.256,8.311,4.284,8.055,8.994C230.135,423.151,226.372,426.667,221.875,426.667z"/>
	<path style="fill:#4D007E;" d="M290.125,426.667c-4.531,0-8.303-3.558-8.516-8.132c-0.222-4.702,3.413-8.704,8.124-8.926
		c30.49-1.434,47.727-2.918,75.554-8.38c4.625-0.913,9.105,2.108,10.018,6.733c0.905,4.625-2.108,9.105-6.733,10.018
		c-28.894,5.675-46.669,7.202-78.046,8.687C290.398,426.667,290.261,426.667,290.125,426.667z"/>
	<path style="fill:#4D007E;" d="M409.591,409.6c-3.797,0-7.262-2.551-8.26-6.4c-1.178-4.565,1.57-9.216,6.127-10.394
		c14.558-3.755,30.831-10.138,46.575-16.299c4.343-1.707,8.661-3.388,12.902-5.018c4.403-1.69,9.335,0.529,11.017,4.924
		c1.681,4.403-0.521,9.335-4.924,11.025c-4.198,1.604-8.474,3.277-12.774,4.966c-16.213,6.349-32.973,12.919-48.529,16.93
		C411.017,409.515,410.3,409.6,409.591,409.6z"/>
</g>
<g>
</g>
<g>
</g>
<g>
</g>
<g>
</g>
<g>
</g>
<g>
</g>
<g>
</g>
<g>
</g>
<g>
</g>
<g>
</g>
<g>
</g>
<g>
</g>
<g>
</g>
<g>
</g>
<g>
</g>
</svg>
